<svg xmlns:xlink="http://www.w3.org/1999/xlink" width="24" height="24" xmlns="http://www.w3.org/2000/svg">
    <g stroke="currentColor" stroke-width="0.8">
        <path id="rect" d="m18,0.77l-15.58,0l7.79,10.25l7.79,-10.25zm-1.49,0.74l-6.29,8.28l-6.29,-8.28l12.59,0z"/>
        <path d="m21,18.95l-1.78,-0.47c2.42,-1.26 4.01,-3.82 4.01,-6.57c0,-3.00 -1.88,-5.77 -4.68,-6.88c-0.19,-0.07 -0.40,0.01 -0.48,0.20s0.01,0.40 0.20,0.48c2.52,1.00 4.21,3.49 4.21,6.20c0,2.59 -1.56,4.99 -3.90,6.06l0.58,-2.18c0.05,-0.19 -0.06,-0.40 -0.26,-0.45c-0.19,-0.05 -0.40,0.06 -0.45,0.26l-0.76,2.86c-0.00,0.02 -0.00,0.04 -0.00,0.06c-0.00,0.01 -0.00,0.03 -0.00,0.05c0.00,0.01 0.00,0.02 0.00,0.03c0.00,0.02 0.00,0.05 0.01,0.07c0.05,0.15 0.19,0.24 0.35,0.24c0.01,0 0.02,-0.00 0.03,-0.00l2.73,0.73c0.03,0.00 0.06,0.01 0.09,0.01c0.16,0 0.31,-0.10 0.35,-0.27c0.05,-0.19 -0.06,-0.40 -0.26,-0.45z"/>
        <use xlink:href="#rect" transform="rotate(180 10.2 12)"/>
        <line x1="2.4" y1="12" x2="19.2" y2="12" stroke="currentColor" stroke-width="2" stroke-dasharray="0.5, 2.5"
              stroke-linecap="round"></line>
    </g>

</svg>