<svg width="24" height="24" xmlns="http://www.w3.org/2000/svg" class="svg-icon">
    <g>
        <title>Pin</title>
        <path stroke="currentColor" id="svg_1"
              d="m1.46,22.61a0.46,0.45 0 0 1 -0.32,-0.76l8.36,-8.16l-3.17,-3.09a1.38,1.35 0 0 1 0,-1.91l0.46,-0.45a1.37,1.34 0 0 1 0.97,-0.39l2.92,0a0.45,0.44 0 0 0 0.32,-0.13l3.88,-3.79a0.19,0.18 0 0 0 0,-0.26a1.11,1.09 0 0 1 0,-1.53l0.73,-0.71a1.37,1.34 0 0 1 0.97,-0.39c0.37,0 0.71,0.14 0.97,0.39l5.15,5.03a1.38,1.35 0 0 1 0,1.91l-0.73,0.71a1.10,1.07 0 0 1 -0.78,0.31c-0.29,0 -0.57,-0.11 -0.78,-0.31a0.18,0.18 0 0 0 -0.13,-0.05a0.18,0.18 0 0 0 -0.13,0.05l-3.88,3.79a0.45,0.44 0 0 0 -0.13,0.31l0,2.85c0,0.36 -0.14,0.69 -0.40,0.95l-0.46,0.45c-0.26,0.25 -0.60,0.39 -0.97,0.39s-0.71,-0.14 -0.97,-0.39l-3.17,-3.09l-8.36,8.16a0.47,0.46 0 0 1 -0.32,0.12zm6.30,-13.88a0.46,0.45 0 0 0 -0.32,0.13l-0.46,0.45a0.46,0.45 0 0 0 0,0.63l7.00,6.83a0.46,0.45 0 0 0 0.65,0l0.46,-0.45a0.46,0.45 0 0 0 0.13,-0.31l0,-2.85c0,-0.36 0.14,-0.69 0.40,-0.95l3.88,-3.79a1.10,1.08 0 0 1 0.78,-0.31a1.10,1.08 0 0 1 0.78,0.31c0.03,0.03 0.08,0.05 0.13,0.05a0.18,0.18 0 0 0 0.13,-0.05l0.73,-0.71a0.46,0.45 0 0 0 0,-0.63l-5.15,-5.03a0.46,0.45 0 0 0 -0.65,0l-0.73,0.71a0.19,0.18 0 0 0 0,0.26c0.43,0.42 0.43,1.11 0.00,1.53l-3.88,3.79a1.37,1.34 0 0 1 -0.97,0.39l-2.92,0z"/>
    </g>
</svg>