<svg width="24" height="24" xmlns="http://www.w3.org/2000/svg" class="svg-icon">

    <g>
        <title>background</title>
        <rect fill="none" id="canvas_background" height="24" width="24" y="0" x="0"/>
    </g>
    <g>
        <title>Pin</title>
        <path stroke="currentColor" id="svg_1"
              d="m1.461398,22.618735a0.461497,0.450446 0 0 1 -0.32674,-0.768462l8.362327,-8.162989l-3.174177,-3.09817a1.385414,1.35224 0 0 1 0,-1.910793l0.461497,-0.450446a1.375261,1.34233 0 0 1 0.979297,-0.395492l2.927737,0a0.458728,0.447744 0 0 0 0.325817,-0.13153l3.883036,-3.790055a0.190137,0.185584 0 0 0 0,-0.263962a1.116823,1.09008 0 0 1 0,-1.537824l0.731934,-0.714408a1.373415,1.340528 0 0 1 0.979297,-0.394591c0.370121,0 0.71809,0.140539 0.979297,0.394591l5.155845,5.032387a1.385414,1.35224 0 0 1 0,1.910793l-0.731934,0.714408a1.105747,1.07927 0 0 1 -0.787314,0.318015c-0.298127,0 -0.577794,-0.112612 -0.788237,-0.318015a0.189214,0.184683 0 0 0 -0.134757,-0.054054a0.189214,0.184683 0 0 0 -0.134757,0.054054l-3.883036,3.790056a0.459651,0.448645 0 0 0 -0.134757,0.318916l0,2.857632c0,0.361258 -0.143987,0.699994 -0.405194,0.955847l-0.461497,0.450446c-0.261207,0.254953 -0.608253,0.394591 -0.979297,0.394591s-0.71809,-0.140539 -0.979297,-0.394591l-3.174177,-3.09817l-8.362327,8.162988a0.478111,0.466662 0 0 1 -0.328586,0.128828zm6.302204,-13.88636a0.46242,0.451347 0 0 0 -0.32674,0.13153l-0.461497,0.450446a0.461497,0.450446 0 0 0 0,0.636931l7.001834,6.834172a0.461497,0.450446 0 0 0 0.65348,0l0.461497,-0.450446a0.465189,0.45405 0 0 0 0.134757,-0.318916l0,-2.857632c0,-0.361258 0.143987,-0.699994 0.405195,-0.955847l3.883036,-3.790056a1.107593,1.081071 0 0 1 0.787314,-0.318916a1.107593,1.081071 0 0 1 0.788237,0.318916c0.03692,0.036036 0.083992,0.054955 0.13568,0.054955a0.184599,0.180178 0 0 0 0.134757,-0.054955l0.731934,-0.714408a0.461497,0.450446 0 0 0 0,-0.636931l-5.155845,-5.032387a0.461497,0.450446 0 0 0 -0.65348,0l-0.731934,0.714408a0.19106,0.186485 0 0 0 0,0.263961c0.433807,0.423419 0.43473,1.113503 0.000923,1.537824l-3.882113,3.791857a1.375261,1.34233 0 0 1 -0.978374,0.395492l-2.92866,0z"/>
    </g>
</svg>