<svg xmlns="http://www.w3.org/2000/svg" viewBox="0 0 90 90" width="90" height="90">
    <style>
        tspan { white-space:pre }
        .shp0 { fill: #000000 }
    </style>
    <path id="Layer" class="shp0"
          d="M47.56,65.48v7.68c4.35,0.51 8.19,2.05 9.73,5.12h5.63c2.82,0 5.12,2.3 5.12,5.12h-46.08c0,-2.82 2.3,-5.12 5.12,-5.12h5.63c1.54,-3.07 5.63,-4.61 9.73,-5.12v-7.68c0,-4.1 -2.3,-5.89 -6.66,-9.22c-7.42,-5.89 -18.94,-14.59 -18.94,-47.1v-2.56h56.32v2.56c0,32.51 -11.26,41.22 -18.94,47.1c-4.61,3.33 -6.66,5.12 -6.66,9.22zM51.4,52.17c6.91,-5.38 16.38,-12.8 16.9,-40.45h-46.08c0.51,27.9 9.98,35.07 16.9,40.45c2.05,1.54 4.35,3.33 5.89,5.38c1.54,-2.05 3.84,-3.58 6.4,-5.38z"/>
    <path id="Layer" class="shp0"
          d="M30.15,45c-0.26,0 -22.02,-4.61 -23.55,-28.16h12.8v-5.12h-17.92v2.56c0,29.95 27.39,35.84 27.65,35.84z"/>
    <path id="Layer" class="shp0"
          d="M89.52,14.28v-2.56h-17.92v5.12h12.8c-1.54,23.3 -22.53,27.9 -23.55,28.16l1.02,5.12c0.26,0 27.65,-5.89 27.65,-35.84z"/>
</svg>